<?xml version="1.0" encoding="UTF-8" standalone="no"?>
<svg
   height="16"
   viewBox="0 0 16 16"
   width="16"
   version="1.1"
   id="svg1"
   sodipodi:docname="CodeEdit.svg"
   xml:space="preserve"
   inkscape:version="1.3 (0e150ed, 2023-07-21)"
   xmlns:inkscape="http://www.inkscape.org/namespaces/inkscape"
   xmlns:sodipodi="http://sodipodi.sourceforge.net/DTD/sodipodi-0.dtd"
   xmlns="http://www.w3.org/2000/svg"
   xmlns:svg="http://www.w3.org/2000/svg"><defs
     id="defs1" /><sodipodi:namedview
     id="namedview1"
     pagecolor="#505050"
     bordercolor="#ffffff"
     borderopacity="1"
     inkscape:showpageshadow="0"
     inkscape:pageopacity="0"
     inkscape:pagecheckerboard="1"
     inkscape:deskcolor="#505050"
     inkscape:zoom="25.721009"
     inkscape:cx="3.9267511"
     inkscape:cy="3.6546"
     inkscape:window-width="2560"
     inkscape:window-height="1368"
     inkscape:window-x="2560"
     inkscape:window-y="0"
     inkscape:window-maximized="1"
     inkscape:current-layer="svg1" /><path
     d="m 7.8106528,9.182818 a 1.618213,1.618213 0 0 0 -1.618213,1.618213 1.618213,1.618213 0 0 0 1.618213,1.618213 1.618213,1.618213 0 0 0 1.618213,-1.618213 1.618213,1.618213 0 0 0 -1.618213,-1.618213 m 0.571134,1.523024 A 0.475945,0.475945 0 0 1 7.9058418,10.229897 0.475945,0.475945 0 0 1 8.3817868,9.7539521 0.475945,0.475945 0 0 1 8.8577321,10.229897 0.475945,0.475945 0 0 1 8.3817868,10.705842 M 9.5240556,8.6116842 A 0.475945,0.475945 0 0 0 9.04811,9.0876294 0.475945,0.475945 0 0 0 9.5240556,9.5635738 0.475945,0.475945 0 0 0 9.9999996,9.0876294 0.475945,0.475945 0 0 0 9.5240556,8.6116842"
     id="path1-1"
     style="fill:#8eef97;fill-opacity:1;stroke-width:0.190378"
     inkscape:label="Lua" /><path
     d="M3 1a2 2 0 0 0-2 2v10a2 2 0 0 0 2 2h10a2 2 0 0 0 2-2V3a2 2 0 0 0-2-2zm0 2h10v10H3zm2 1L4 5l1 1-1 1 1 1 2-2zm2 3v1h2V7z"
     fill="#8eef97"
     id="path1"
     inkscape:label="CodeEdit" /></svg>
